<svg height="32" viewBox="0 0 32 32" width="32" xmlns="http://www.w3.org/2000/svg">
  <path d="m5.332031 0c.984375 0 1.777344.894531 1.777344 2v6h-3.554687v-6c0-1.105469.796874-2 1.777343-2zm10.667969 0c.984375 0 1.777344.894531 1.777344 2v6h-3.554688v-6c0-1.105469.792969-2 1.777344-2zm3.554688 10c.984374 0 1.777343.894531 1.777343 2 0 .144531-.015625.289062-.039062.425781-4.082031 1.269531-7.070313 5.554688-7.070313 10.574219 0 .710938.0625 1.40625.171875 2.082031-.609375.316407-1.265625.5625-1.949219.71875v6.199219h-3.554687v-6.199219c-4.058594-.980469-7.113281-4.964843-7.113281-9.800781v-2c-.980469 0-1.777344-.894531-1.777344-2s.796875-2 1.777344-2zm12.445312 13c0 4.96875-3.582031 9-8 9s-8-4.03125-8-9 3.582031-9 8-9 8 4.03125 8 9zm-5.515625-2.707031-3.375 3.792969-1.59375-1.792969c-.34375-.394531-.910156-.394531-1.253906 0-.351563.386719-.351563 1.027343 0 1.414062l2.222656 2.5c.34375.394531.910156.394531 1.253906 0l4-4.5c.351563-.386719.351563-1.027343 0-1.414062-.34375-.394531-.910156-.394531-1.253906 0zm0 0"/>
</svg>
