<svg height="32" viewBox="0 0 32 32" width="32" xmlns="http://www.w3.org/2000/svg">
  <path d="m26.507812 17.9375c-.945312-.945312-2.507812-.277344-2.507812 1.0625v3h-3l-11.398438-15.199219c-.375-.5-.96875-.800781-1.601562-.800781h-6c-1.105469 0-2 .894531-2 2s.894531 2 2 2h5l11.398438 15.199219c.375.507812.96875.800781 1.601562.800781h4v2.996094c0 1.335937 1.613281 2.007812 2.558594 1.0625l4.945312-5c.585938-.585938.585938-1.535156 0-2.121094zm-5.507812-7.9375h3v3c0 1.339844 1.613281 2.007812 2.503906 1.0625l4.945313-5c.585937-.585938.585937-1.535156 0-2.121094l-4.945313-5c-.945312-.945312-2.5625-.273437-2.5625 1.0625v2.996094h-3.941406c-.628906 0-1.222656.296875-1.597656.800781l-2.527344 3.367188 2.445312 3.332031zm-14 12h-5c-1.105469 0-2 .894531-2 2s.894531 2 2 2h6c.628906 0 1.222656-.296875 1.597656-.800781l2.527344-3.367188-2.5-3.332031zm0 0"/>
</svg>
