<svg height="32" viewBox="0 0 32 32" width="32" xmlns="http://www.w3.org/2000/svg">
  <path d="m11 2v23.175781l3.585938-3.585937c.78125-.78125 2.046874-.78125 2.828124 0 .390626.386718.585938.898437.585938 1.410156s-.195312 1.023438-.585938 1.414062l-7 7c-.78125.78125-2.046874.78125-2.828124 0l-7-7c-.78125-.78125-.78125-2.046874 0-2.828124s2.046874-.78125 2.828124 0l3.585938 3.589843v-23.175781c0-1.105469.894531-2 2-2s2 .894531 2 2zm10 28v-23.167969l-3.585938 3.585938c-.78125.78125-2.046874.78125-2.828124 0s-.78125-2.046875 0-2.828125l7-7c.78125-.78125 2.046874-.78125 2.828124 0l7 7c.390626.386718.585938.898437.585938 1.410156s-.195312 1.023438-.585938 1.414062c-.78125.78125-2.046874.78125-2.828124 0l-3.585938-3.582031v23.167969c0 1.105469-.894531 2-2 2s-2-.894531-2-2zm0 0"/>
</svg>
