<svg height="32" viewBox="0 0 32 32" width="32" xmlns="http://www.w3.org/2000/svg">
  <path d="m16.070312 5.96875c-.707031 0-1.402343.078125-2.125.21875v-4.0625c.730469-.101562 1.421876-.15625 2.125-.15625 3.636719 0 6.949219 1.390625 9.441407 3.664062l1.839843-1.839843c.628907-.628907 1.703126-.183594 1.703126.707031v6.585938c0 .550781-.449219 1-1 1h-6.585938c-.886719 0-1.335938-1.078126-.707031-1.703126l1.917969-1.921874c-1.761719-1.546876-4.074219-2.492188-6.609376-2.492188zm-10 10c0 .699219.070313 1.375.203126 2.03125h-4.054688c-.097656-.664062-.148438-1.335938-.148438-2.03125 0-3.582031 1.347657-6.855469 3.566407-9.332031l-1.84375-1.84375c-.628907-.628907-.183594-1.707031.652343-1.707031h6.640626c.550781 0 1 .449218 1 1v6.582031c0 .894531-1.078126 1.339843-1.703126.714843l-1.914062-1.914062c-1.492188 1.75-2.398438 4.019531-2.398438 6.5zm5.3125 5.792969-1.8125 1.808593c1.75 1.5 4.015626 2.398438 6.5 2.398438.660157 0 1.304688-.0625 1.929688-.179688v4.046876c-.632812.089843-1.273438.132812-1.929688.132812-3.582031 0-6.859374-1.398438-9.332031-3.5625l-1.945312 1.945312c-.628907.628907-1.707031.179688-1.707031-.707031v-6.589843c0-.546876.449218-1 1-1h6.582031c.839843 0 1.339843 1.078124.714843 1.707031zm10.378907-1 1.8125 1.8125c1.558593-1.753907 2.496093-4.066407 2.496093-6.605469 0-.675781-.0625-1.332031-.195312-1.96875h4.054688c.09375.644531.140624 1.300781.140624 1.96875 0 3.636719-1.390624 6.949219-3.65625 9.445312l1.9375 1.9375c.628907.628907.179688 1.703126-.707031 1.703126h-6.589843c-.546876 0-1-.449219-1-1v-6.585938c0-.886719 1.078124-1.335938 1.707031-.707031zm0 0"/>
</svg>
