<svg height="32" viewBox="0 0 32 32" width="32" xmlns="http://www.w3.org/2000/svg">
  <path d="m30.222656 26c.984375 0 1.777344.894531 1.777344 2s-.792969 2-1.777344 2h-28.445312c-.980469 0-1.777344-.894531-1.777344-2s.796875-2 1.777344-2zm-4.078125-2.585938c-.695312.78125-1.816406.78125-2.511719 0l-5.332031-6c-.695312-.78125-.695312-2.046874 0-2.828124.695313-.78125 1.816407-.78125 2.511719 0l2.296875 2.582031v-13.167969c0-1.105469.796875-2 1.78125-2 .980469 0 1.777344.894531 1.777344 2v13.167969l2.296875-2.582031c.695312-.78125 1.820312-.78125 2.511718 0 .695313.78125.695313 2.046874 0 2.828124zm-12.445312-6-5.332031 6c-.695313.78125-1.816407.78125-2.511719 0l-5.335938-6c-.691406-.78125-.691406-2.046874 0-2.828124.695313-.78125 1.820313-.78125 2.515625 0l2.296875 2.582031v-13.167969c0-1.105469.796875-2 1.777344-2 .984375 0 1.78125.894531 1.78125 2v13.167969l2.296875-2.582031c.695312-.78125 1.816406-.78125 2.511719 0 .695312.78125.695312 2.046874 0 2.828124zm0 0"/>
</svg>
