<svg height="32" viewBox="0 0 32 32" width="32" xmlns="http://www.w3.org/2000/svg">
  <path d="m26.132812 24.519531-8.667968 7c-.789063.636719-2.140625.636719-2.929688 0l-8.667968-7c-.539063-.4375-.683594-1.074219-.367188-1.621093.316406-.546876 1.039062-.898438 1.832031-.898438h6v-17c0-.550781-.597656-1-1.332031-1h-9.332031c-1.472657 0-2.667969-.894531-2.667969-2s1.195312-2 2.667969-2h9.332031c3.675781 0 6.667969 2.242188 6.667969 5v17h6c.792969 0 1.515625.351562 1.832031.902344.316406.546875.175781 1.179687-.367188 1.617187zm0 0"/>
</svg>
