<svg height="32" viewBox="0 0 32 32" width="32" xmlns="http://www.w3.org/2000/svg">
  <path d="m26.5 9.101562c-.316406.546876-1.039062.898438-1.832031.898438h-6v17c0 2.757812-2.992188 5-6.667969 5h-9.332031c-1.472657 0-2.667969-.894531-2.667969-2s1.195312-2 2.667969-2h9.332031c.734375 0 1.332031-.449219 1.332031-1v-17l-6-.054688c-.792969 0-1.515625-.355468-1.832031-.902343s-.171875-1.125.367188-1.5625l8.667968-7c.789063-.636719 2.140625-.636719 2.929688 0l8.667968 7c.542969.4375.683594 1.070312.367188 1.621093zm0 0"/>
</svg>
