<svg height="32" viewBox="0 0 32 32" width="32" xmlns="http://www.w3.org/2000/svg"><g transform="matrix(1.8780526 0 0 1.7756961 -4.658578 -3.327088)"><path d="m3.5734677 10.62053.2919993 3.081994 4.709445-.387453-.2918176-3.078722c-.00673-.074-.010364-.150727-.010364-.226363 0-1.4139973 1.223452-2.5645403 2.7272666-2.5645403 1.503815 0 2.727268 1.150725 2.727268 2.5645403 0 .07564-.0036.152363-.01036.226545l-.291818 3.07854 4.709445.387453.291818-3.081994c.01854-.203636.02818-.407999.02818-.610544 0-3.8656293-3.344175-7.0099863-7.45453-7.0099863-4.1103552 0-7.4545303 3.144357-7.4545303 7.0099863 0 .202545.00964.406908.028.610544z" fill="#ff0000"/><path d="m12.967542 17.851801c-.026.301123.19709.568726.495817.595426l3.622902.319057c.298726.0269.564544-.198411.590908-.499342l.282726-3.202642-4.709081-.415533zm-8.9274372-2.787501.2830903 3.202642c.026.300931.2921812.526239.5909079.499342l3.6229017-.319057c.2979994-.0267.5212717-.294303.4958172-.595426l-.2830904-3.203034z" fill="#808080"/></g></svg>