<svg height="32" viewBox="0 0 32 32" width="32" xmlns="http://www.w3.org/2000/svg">
  <path d="m26.304688 28.328125c2.800781 0 4.207031-1.378906 4.207031-4.152344v-16.351562c0-2.773438-1.40625-4.152344-4.207031-4.152344h-11.636719c-1.566407 0-2.921875.402344-4.019531 1.566406l-7.886719 8.195313c-.871094.898437-1.273438 1.703125-1.273438 2.546875 0 .828125.390625 1.648437 1.273438 2.542969l7.902343 8.15625c1.109376 1.152343 2.449219 1.636718 4.015626 1.636718zm-3.121094-6.402344c-.320313 0-.601563-.121093-.828125-.335937l-3.910157-3.9375-3.925781 3.9375c-.226562.214844-.507812.335937-.828125.335937-.65625 0-1.207031-.535156-1.207031-1.191406 0-.308594.132813-.601563.363281-.84375l3.894532-3.910156-3.894532-3.898438c-.230468-.242187-.363281-.535156-.363281-.84375 0-.667969.550781-1.21875 1.207031-1.21875.304688 0 .601563.121094.84375.363281l3.910156 3.910157 3.894532-3.910157c.242187-.242187.539062-.363281.84375-.363281.671875 0 1.207031.550781 1.207031 1.21875 0 .308594-.121094.601563-.363281.84375l-3.894532 3.898438 3.894532 3.910156c.242187.242187.363281.535156.363281.84375 0 .65625-.550781 1.191406-1.207031 1.191406zm0 0" fill="#8b0000"/>
</svg>
