<svg height="32" viewBox="0 0 32 32" width="32" xmlns="http://www.w3.org/2000/svg">
  <path d="m27.429688 28v-14c0-1.105469 1.023437-2 2.285156-2 1.261718 0 2.285156.894531 2.285156 2v14c0 1.105469-1.023438 2-2.285156 2-1.261719 0-2.285156-.894531-2.285156-2zm-18.285157 0v-14c0-1.105469 1.019531-2 2.285157-2 1.261718 0 2.285156.894531 2.285156 2v14c0 1.105469-1.023438 2-2.285156 2-1.265626 0-2.285157-.894531-2.285157-2zm11.425781-26c1.265626 0 2.285157.894531 2.285157 2v24c0 1.105469-1.019531 2-2.285157 2-1.261718 0-2.285156-.894531-2.285156-2v-24c0-1.105469 1.023438-2 2.285156-2zm-20.570312 26v-24c0-1.105469 1.019531-2 2.285156-2s2.285156.894531 2.285156 2v24c0 1.105469-1.019531 2-2.285156 2s-2.285156-.894531-2.285156-2zm0 0"/>
</svg>
