<svg height="32" viewBox="0 0 32 32" width="32" xmlns="http://www.w3.org/2000/svg">
  <path d="m3.480469.144531c.859375.417969 1.347656 1.582031.980469 2.605469-.582032 1.617188-.90625 3.390625-.90625 5.25 0 1.863281.324218 3.632812.90625 5.195312.367187 1.078126-.121094 2.242188-.980469 2.660157-.914063.414062-1.949219-.082031-2.316407-1.105469-.75-2.085938-1.164062-4.367188-1.164062-6.75s.414062-4.664062 1.164062-6.75c.367188-1.023438 1.402344-1.519531 2.316407-1.105469zm25.042969 0c.910156-.414062 1.941406.082031 2.316406 1.105469.75 2.085938 1.160156 4.367188 1.160156 6.75s-.410156 4.664062-1.160156 6.75c-.375 1.023438-1.40625 1.519531-2.316406 1.105469-.914063-.417969-1.351563-1.582031-.984376-2.660157.582032-1.5625.90625-3.332031.90625-5.195312 0-1.859375-.324218-3.632812-.90625-5.25-.367187-1.023438.070313-2.1875.984376-2.605469zm-2.019532 29.03125c.40625 1 .011719 2.1875-.882812 2.644531-.886719.453126-1.941406.011719-2.347656-.996093l-1.144532-2.824219h-12.257812l-1.144532 2.824219c-.40625 1.007812-1.460937 1.449219-2.347656.996093-.898437-.457031-1.292968-1.644531-.886718-2.644531l7.613281-18.851562c-.417969-.65625-.660157-1.457031-.660157-2.324219 0-2.210938 1.59375-4 3.554688-4s3.554688 1.789062 3.554688 4c0 .867188-.242188 1.667969-.660157 2.324219zm-5.992187-5.175781-.804688-2h-7.414062l-.804688 2zm-6.601563-6h4.179688l-2.089844-5.167969zm-5.464844-10c0 1.210938.222657 2.363281.625 3.398438.296876.757812-.007812 1.644531-.6875 1.921874-.671874.386719-1.460937.042969-1.753906-.71875-.546875-1.414062-.851562-2.96875-.851562-4.601562s.304687-3.191406.851562-4.601562c.292969-.757813 1.082032-1.105469 1.753906-.773438.679688.332031.984376 1.214844.6875 1.976562-.402343 1.039063-.625 2.1875-.625 3.398438zm17.777344 0c0 1.632812-.304687 3.1875-.851562 4.601562-.292969.761719-1.082032 1.105469-1.753906.71875-.679688-.277343-.984376-1.164062-.6875-1.921874.355468-1.035157.625-2.1875.625-3.398438s-.269532-2.359375-.625-3.398438c-.296876-.761718.007812-1.644531.6875-1.976562.671874-.332031 1.460937.015625 1.753906.773438.546875 1.410156.851562 2.96875.851562 4.601562zm0 0"/>
</svg>
