<svg height="32" viewBox="0 0 32 32" width="32" xmlns="http://www.w3.org/2000/svg">
  <path d="m16 0c.292969 0 .574219.0625.835938.183594l11.769531 4.992187c1.375.582031 2.40625 1.9375 2.394531 3.519531-.03125 6.253907-2.582031 17.597657-13.351562 22.753907-1.042969.496093-2.253907.496093-3.296876 0-10.773437-5.15625-13.320312-16.5-13.40625-22.753907.046876-1.582031 1.074219-2.9375 2.449219-3.519531l11.773438-4.992187c.257812-.121094.542969-.183594.832031-.183594zm0 27.800781c8.570312-4.175781 10.945312-13.417969 11-18.964843l-11-4.664063zm0 0"/>
</svg>
