<svg height="32" viewBox="0 0 32 32" width="32" xmlns="http://www.w3.org/2000/svg">
  <path d="m11 16c0-2.761719 2.238281-5 5-5s5 2.238281 5 5-2.238281 5-5 5-5-2.238281-5-5zm5-16c1.105469 0 2 .894531 2 2v2.164062c5.023438.84375 8.992188 4.8125 9.832031 9.835938h2.167969c1.105469 0 2 .894531 2 2s-.894531 2-2 2h-2.167969c-.839843 5.023438-4.808593 8.992188-9.832031 9.832031v2.167969c0 1.105469-.894531 2-2 2s-2-.894531-2-2v-2.167969c-5.023438-.839843-8.992188-4.808593-9.835938-9.832031h-2.164062c-1.105469 0-2-.894531-2-2s.894531-2 2-2h2.164062c.84375-5.023438 4.8125-8.992188 9.835938-9.835938v-2.164062c0-1.105469.894531-2 2-2zm-8 16c0 4.417969 3.582031 8 8 8s8-3.582031 8-8-3.582031-8-8-8-8 3.582031-8 8zm0 0"/>
</svg>
