<svg height="32" viewBox="0 0 32 32" width="32" xmlns="http://www.w3.org/2000/svg">
  <path d="m14.220364 14.446927v-5.3320315c0-.984375-.894531-1.78125-2-1.78125s-2 .796875-2 1.78125v5.2812505c0 .980469.894531 1.777344 2 1.777344s2-.742188 2-1.726563zm8 0v-8.8906255c0-.980469-.894531-1.777343-2-1.777343s-2 .796874-2 1.777343v8.8398445c0 .980469.894531 1.777344 2 1.777344s2-.742188 2-1.726563zm-16 0v-1.777344c0-.984374-.894531-1.730468-2-1.730468s-2 .796875-2 1.730468v1.777344c0 .980469.894531 1.777344 2 1.777344s2-.792969 2-1.777344zm20-12.4453125v12.3945315c0 .980469.894531 1.777344 2 1.777344s2-.796875 2-1.777344v-12.3945315c0-.980469-.894531-1.77734399-2-1.77734399s-2 .79296899-2 1.77734399zm-5.332031 19.5351565 2.214843 1.796875h-18.882812c-1.105469 0-2 .796875-2 1.78125 0 .980469.894531 1.777344 2 1.777344h18.875l-2.207031 1.796875c-.429688.351562-.648438.832031-.648438 1.3125 0 .429687.175781.859375.527344 1.203125.746094.722656 2.011719.769531 2.828125.109375l6.007812-4.839844c.828126-.675781.828126-1.949219 0-2.621094l-6.007812-4.839844c-.816406-.664062-2.082031-.613281-2.828125.109376-.746094.625-.691406 1.746093.121094 2.414062zm0 0"/>
</svg>
