<svg height="32" viewBox="0 0 32 32" width="32" xmlns="http://www.w3.org/2000/svg">
  <path d="m26.225955 2.0032989v12.3945311c0 .980469.894531 1.777344 2 1.777344s2-.796875 2-1.777344v-12.3945311c0-.980469-.894531-1.77734398-2-1.77734398s-2 .79296898-2 1.77734398zm-20.0000001 12.4453121v-1.777344c0-.984374-.894531-1.730468-2-1.730468s-2 .796875-2 1.730468v1.777344c0 .980469.894531 1.777344 2 1.777344s2-.792969 2-1.777344zm8.0000001 0v-5.3320311c0-.984375-.894531-1.78125-2-1.78125s-2 .796875-2 1.78125v5.2812501c0 .980469.894531 1.777344 2 1.777344s2-.742188 2-1.726563zm8 0v-8.8906251c0-.980469-.894531-1.777343-2-1.777343s-2 .796874-2 1.777343v8.8398441c0 .980469.894531 1.777344 2 1.777344s2-.742188 2-1.726563zm-19.3789061 9.355469c-.828125.671875-.828125 1.949219 0 2.621094l6.007812 4.839843c.816406.710938 2.0820321.664063 2.8281251-.05859.351563-.34375.523438-.773438.523438-1.203125 0-.480469-.21875-.960938-.648438-1.3125l-2.2148431-1.796878h18.8750001c1.113281 0 2.007812-.796875 2.007812-1.777344 0-.984375-.894531-1.78125-2-1.78125h-18.8828121l2.2148431-1.796875c.8125-.667969.875-1.789062.125-2.511719-.746093-.726562-2.0156251-.773437-2.8320311-.109375zm0 0"/>
</svg>
