<svg height="32" viewBox="0 0 32 32" width="32" xmlns="http://www.w3.org/2000/svg">
  <path d="m25.601562 0c3.527344 0 6.398438 1.789062 6.398438 4v18c0 5.523438-7.160156 10-16 10-8.835938 0-16-4.476562-16-10v-18c0-2.210938 2.863281-4 6.398438-4zm-9.601562 20c-2.648438 0-4.800781 1.34375-4.800781 3s2.152343 3 4.800781 3 4.800781-1.34375 4.800781-3-2.152343-3-4.800781-3zm0-2c2.648438 0 4.800781-1.34375 4.800781-3s-2.152343-3-4.800781-3-4.800781 1.34375-4.800781 3 2.152343 3 4.800781 3zm0-14c-2.648438 0-4.800781 1.34375-4.800781 3s2.152343 3 4.800781 3 4.800781-1.34375 4.800781-3-2.152343-3-4.800781-3zm0 0" fill="#1e90ff"/>
</svg>
