<?xml version="1.0" encoding="UTF-8" standalone="no"?>
<svg
   height="32"
   viewBox="0 0 32 32"
   width="32"
   version="1.1"
   id="svg4"
   sodipodi:docname="stalledUP.svg"
   inkscape:version="1.1 (c4e8f9ed74, 2021-05-24)"
   xmlns:inkscape="http://www.inkscape.org/namespaces/inkscape"
   xmlns:sodipodi="http://sodipodi.sourceforge.net/DTD/sodipodi-0.dtd"
   xmlns="http://www.w3.org/2000/svg"
   xmlns:svg="http://www.w3.org/2000/svg">
  <defs
     id="defs8" />
  <sodipodi:namedview
     id="namedview6"
     pagecolor="#ffffff"
     bordercolor="#666666"
     borderopacity="1.0"
     inkscape:pageshadow="2"
     inkscape:pageopacity="0.0"
     inkscape:pagecheckerboard="0"
     showgrid="false"
     inkscape:zoom="16.90625"
     inkscape:cx="16"
     inkscape:cy="16.029575"
     inkscape:window-width="1366"
     inkscape:window-height="705"
     inkscape:window-x="0"
     inkscape:window-y="0"
     inkscape:window-maximized="1"
     inkscape:current-layer="svg4" />
  <path
     d="m14.672297 15.982037-10.6216938 9.553713c-.7341375.660327-.7341375 1.728087 0 2.381391l1.7650977 1.587614c.7341375.660326 1.9212717.660326 2.647597 0l7.5288911-6.771893 7.528912 6.771893c.734138.660326 1.92127.660326 2.647596 0l1.780702-1.580573c.734135-.660345.734135-1.728105 0-2.381409l-10.621695-9.553732c-.734138-.667348-1.92125-.667348-2.655407-.0074zm2.655407-13.4876193 10.621695 9.5537303c.734135.660326.734135 1.728086 0 2.38139l-1.765078 1.587612c-.734157.660327-1.921272.660327-2.647619 0l-7.536702-6.7648849-7.52889 6.7719079c-.7341374.660327-1.9212716.660327-2.6476183 0l-1.7728885-1.587593c-.7341375-.660346-.7341375-1.728106 0-2.38141l10.6216938-9.5537123c.734157-.6673682 1.921269-.6673682 2.655407-.00742z"
     stroke-width=".07407"
     id="path2"
     style="fill:#909090;fill-opacity:1" />
</svg>
