<?xml version="1.0" encoding="UTF-8" standalone="no"?>
<svg
   height="32"
   viewBox="0 0 32 32"
   width="32"
   version="1.1"
   id="svg4"
   sodipodi:docname="stalledDL.svg"
   inkscape:version="1.1 (c4e8f9ed74, 2021-05-24)"
   xmlns:inkscape="http://www.inkscape.org/namespaces/inkscape"
   xmlns:sodipodi="http://sodipodi.sourceforge.net/DTD/sodipodi-0.dtd"
   xmlns="http://www.w3.org/2000/svg"
   xmlns:svg="http://www.w3.org/2000/svg">
  <defs
     id="defs8" />
  <sodipodi:namedview
     id="namedview6"
     pagecolor="#ffffff"
     bordercolor="#666666"
     borderopacity="1.0"
     inkscape:pageshadow="2"
     inkscape:pageopacity="0.0"
     inkscape:pagecheckerboard="0"
     showgrid="false"
     inkscape:zoom="16.90625"
     inkscape:cx="16"
     inkscape:cy="16.029575"
     inkscape:window-width="1366"
     inkscape:window-height="705"
     inkscape:window-x="0"
     inkscape:window-y="0"
     inkscape:window-maximized="1"
     inkscape:current-layer="svg4" />
  <path
     d="m14.672296 16.017963-10.6216928-9.5537122c-.7341375-.6603266-.7341375-1.7280868 0-2.3813907l1.7650978-1.5876139c.7341375-.6603266 1.9212716-.6603266 2.6475971 0l7.5288899 6.7718933 7.528912-6.7718933c.734138-.6603266 1.921271-.6603266 2.647596 0l1.780701 1.5805722c.734137.6603456.734137 1.7281058 0 2.3814097l-10.621693 9.5537309c-.734138.667348-1.921251.667348-2.655408.0074zm2.655408 13.487621 10.621693-9.553731c.734137-.660327.734137-1.728087 0-2.381391l-1.765077-1.587612c-.734157-.660327-1.921272-.660327-2.647619 0l-7.536702 6.764886-7.5288889-6.771909c-.7341375-.660327-1.9212716-.660327-2.6476184 0l-1.7728885 1.587593c-.7341375.660346-.7341375 1.728106 0 2.38141l10.6216928 9.553714c.734157.667368 1.92127.667368 2.655408.0074z"
     stroke-width=".07407"
     id="path2"
     style="fill:#686868;fill-opacity:1" />
</svg>
