<svg height="32" viewBox="0 0 32 32" width="32" xmlns="http://www.w3.org/2000/svg">
  <path d="m29 16c0-7.179688-5.820312-13-13-13s-13 5.820312-13 13 5.820312 13 13 13 13-5.820312 13-13zm-13.289062 5.710938c-.394532-.390626-.394532-1.023438-.007813-1.414063l3.269531-3.296875h-8.347656c-.550781 0-1-.449219-1-1s.449219-1 1-1h8.347656l-3.269531-3.296875c-.386719-.390625-.386719-1.023437.007813-1.414063.390624-.390624 1.023437-.386718 1.414062.007813l4.960938 5c.386718.386719.386718 1.019531 0 1.40625l-4.960938 5c-.1875.191406-.441406.296875-.707031.296875s-.519531-.101562-.707031-.289062zm0 0" fill="#f00"/>
</svg>
