<svg height="32" viewBox="0 0 32 32" width="32" xmlns="http://www.w3.org/2000/svg"><g stroke="#1e90ff" transform="matrix(.9995509 0 0 .99838196 -.022052 .025889)"><path d="m26.489833 9.1853575-1.353548-1.5503322a12.268459 12.078962 0 0 0 -8.90061-3.749949c-6.7933802 0-12.3049904 5.4264783-12.3049904 12.1149287 0 6.688449 5.5116102 12.114928 12.3049904 12.114928a12.310758 12.120607 0 0 0 11.604503-8.076619" fill="none" stroke-linecap="round" stroke-miterlimit="10" stroke-width="3.81549"/><path d="m30.000061 3.1837344v7.7575336a1.1497484 1.1224503 0 0 1 -1.14975 1.12245h-7.946197c-1.024714 0-1.53779-1.208738-.813448-1.915882l7.946917-7.758235c.724342-.7085469 1.962478-.2062504 1.962478.7941334z" fill="#1e90ff" stroke-width=".071001"/></g></svg>